# xmcd CD database file
#
# Track frame offsets:
#	150
#	22657
#	50780
#	81000
#
# Disc length: 4440 seconds
#
# Revision: 0
# Processed by: cddbd v1.5PL3 Copyright (c) Steve Scherf et al.
# Submitted via: CDex 1.51
#
DISCID=24115604
DTITLE=PHONES - ひとりじゃない
DYEAR=2004
DGENRE=J-Pop
TTITLE0=ひとりじゃない
TTITLE1=誓いの場所
TTITLE2=TALK ABOUT TONIGHT
TTITLE3=役立たずのCCCD DATA
EXTD=YEAR: 2004
EXTT0=
EXTT1=
EXTT2=
EXTT3=
PLAYORDER=
